<?xml version="1.0" encoding="UTF-8"?>
<svg width="255px" height="355px" viewBox="0 0 255 355" version="1.1" xmlns="http://www.w3.org/2000/svg" xmlns:xlink="http://www.w3.org/1999/xlink">
    <!-- Generator: Sketch 52.5 (67469) - http://www.bohemiancoding.com/sketch -->
    <title>Group 4</title>
    <desc>Created with Sketch.</desc>
    <g id="Page-1" stroke="none" stroke-width="1" fill="none" fill-rule="evenodd">
        <g id="Desktop-HD-Copy" transform="translate(-1185.000000, -669.000000)">
            <g id="Group-4" transform="translate(1138.000000, 656.000000)">
                <path d="M404,52.7251432 C392.98173,181.548817 341.066949,249.118655 248.255658,255.434658 C109.038721,264.908663 373.815134,372.25427 143.133669,503.509746 C-10.653974,591.013397 -15.5502121,423.176815 128.444955,0 L404,52.7251432 Z" id="Path-Copy" fill="#162B49" transform="translate(214.000000, 263.000000) rotate(180.000000) translate(-214.000000, -263.000000) "></path>
                <path d="M355,100.738631 C330.14678,235.912877 278.253022,303.5 199.318725,303.5 C80.9172798,303.5 275.065863,482.944374 94.239304,551.638547 C-26.3117354,597.434662 -31.2059908,429.555146 79.5565377,48 L355,100.738631 Z" id="Path-Copy" fill="#1A3A69" transform="translate(177.500000, 303.500000) rotate(180.000000) translate(-177.500000, -303.500000) "></path>
            </g>
        </g>
    </g>
</svg>