<?xml version="1.0" encoding="UTF-8"?>
<svg width="226px" height="207px" viewBox="0 0 226 207" version="1.1" xmlns="http://www.w3.org/2000/svg" xmlns:xlink="http://www.w3.org/1999/xlink">
    <!-- Generator: Sketch 52.5 (67469) - http://www.bohemiancoding.com/sketch -->
    <title>Group 3</title>
    <desc>Created with Sketch.</desc>
    <g id="Page-1" stroke="none" stroke-width="1" fill="none" fill-rule="evenodd">
        <g id="Desktop-HD-Copy" transform="translate(0.000000, -817.000000)">
            <g id="Group-3" transform="translate(-98.000000, 817.000000)">
                <path d="M58.4531543,94.695373 C96.1115739,7.50756544 137.72663,-19.4736538 183.298323,13.7517154 C251.655862,63.5897691 111.583634,66.3203149 154.333381,120.807968 C197.083128,175.295621 262.550895,75.2743984 313.455191,139.453088 C347.391389,182.238881 299.415325,237.754518 169.527,306 L16,187.968021 L58.4531543,94.695373 Z" id="Path-2-Copy" fill="#051E3C"></path>
                <path d="M42.4704641,88.3051495 C92.9027352,12.611024 134.534759,-14.4200224 167.366537,7.21201037 C216.614202,39.6600595 95.6226072,59.8776902 138.389785,114.465967 C181.156962,169.054245 271.688239,84.5409932 297.576475,133.14552 C314.835299,165.548538 266.839673,221.166698 153.589598,300 L0,181.750047 L42.4704641,88.3051495 Z" id="Path-2" fill="#023447"></path>
            </g>
        </g>
    </g>
</svg>