<?xml version="1.0" encoding="UTF-8"?>
<svg width="232px" height="256px" viewBox="0 0 232 256" version="1.1" xmlns="http://www.w3.org/2000/svg" xmlns:xlink="http://www.w3.org/1999/xlink">
    <!-- Generator: Sketch 52.5 (67469) - http://www.bohemiancoding.com/sketch -->
    <title>Group 5</title>
    <desc>Created with Sketch.</desc>
    <g id="Page-1" stroke="none" stroke-width="1" fill="none" fill-rule="evenodd">
        <g id="Desktop-HD-Copy" transform="translate(-1208.000000, 0.000000)">
            <g id="Group-5" transform="translate(1034.000000, -322.000000)">
                <path d="M168.479271,253.671739 C228.414735,114.758826 294.647406,71.7707073 367.177284,124.707385 C475.9721,204.112401 253.039377,208.462872 321.077971,295.275913 C389.116565,382.088953 493.31215,222.729062 574.329162,324.982451 C628.340503,393.151377 551.983935,481.602265 345.259458,590.335113 L100.91272,402.279391 L168.479271,253.671739 Z" id="Path-2-Copy" fill="#051E3C" transform="translate(346.012265, 346.566215) rotate(-136.000000) translate(-346.012265, -346.566215) "></path>
                <path d="M191.887107,274.229775 C272.12015,153.8516 338.352821,110.863482 390.58512,145.26542 C468.933567,196.868327 276.447213,229.020908 344.485807,315.833948 C412.524401,402.646988 556.551226,268.243547 597.736998,345.540486 C625.194179,397.071779 548.837611,485.522667 368.667294,610.893149 L124.320556,422.837426 L191.887107,274.229775 Z" id="Path-2" fill="#023447" transform="translate(363.752032, 372.344568) rotate(-136.000000) translate(-363.752032, -372.344568) "></path>
            </g>
        </g>
    </g>
</svg>